<?xml version="1.0" encoding="UTF-8"?>
<svg width="709px" height="508px" viewBox="0 0 709 508" version="1.1" xmlns="http://www.w3.org/2000/svg" xmlns:xlink="http://www.w3.org/1999/xlink">
    <!-- Generator: Sketch 47.1 (45422) - http://www.bohemiancoding.com/sketch -->
    <title>bear_polar_white_teddy_bear_animal</title>
    <desc>Created with Sketch.</desc>
    <defs></defs>
    <g id="Page-1" stroke="none" stroke-width="1" fill="none" fill-rule="evenodd">
        <g id="bear_polar_white_teddy_bear_animal" fill-rule="nonzero" fill="#FFFFFF">
            <g id="Group">
                <path d="M13.6473288,181.681687 C-2.24493203,215.14428 49.9078902,237.223888 35.6580985,272.939743 C21.8079356,311.162125 25.776547,349.537423 49.65437,382.148555 C62.7285483,407.935733 35.7532256,466.714762 84.0863196,455.792621 C114.995874,455.124139 124.279269,449.551907 145.084289,423.278232 C160.691187,394.098768 173.112166,363.212254 182.765651,331.811544 C194.235738,312.070227 200.413032,322.723085 189.172631,338.501154 C172.254552,383.397264 156.94882,438.947739 107.26724,457.696441 C82.5284819,465.785714 26.2099536,469.085456 45.2300694,426.734861 C55.0104017,387.154753 11.8570353,360.781963 17.6723201,323.561095 C25.344295,288.703939 35.5010608,247.818783 7.35876761,218.881075 C-2.33021149,206.709806 -4.5192212,187.40346 13.6473288,181.681687 Z" id="path2816"></path>
                <path d="M183.147921,205.077736 C194.282996,242.21437 196.949914,282.111848 210.82507,317.963262 C229.205115,345.930478 245.381466,374.812733 258.07337,405.58206 C272.018851,417.765596 279.596968,462.229605 258.049362,430.020091 C243.360473,395.767759 227.747488,361.869677 206.257704,331.190795 C186.255629,298.275289 189.274795,257.136417 176.149064,221.304124 C171.110389,212.209952 173.596403,208.319989 183.147921,205.077736 Z" id="path2818"></path>
                <path d="M249.502022,449.145953 C256.23852,472.404409 311.727581,467.772085 309.43597,474.958686 C288.668976,479.871427 242.594364,473.585033 242.572624,452.096965 C245.454534,446.206121 265.322867,439.956188 249.502022,449.145953 Z" id="path2820"></path>
                <path d="M265.397268,179.587051 C300.867091,211.378427 323.818572,257.668214 368.644042,278.471408 C384.811134,282.639642 398.257068,304.104574 372.985272,293.793418 C346.986584,276.24309 319.280253,259.758847 300.212436,234.05588 C289.74112,215.245208 264.247957,200.483443 259.715711,182.273107 L265.397268,179.587051 L265.397268,179.587051 Z" id="path2822"></path>
                <path d="M344.404881,285.922911 C342.947218,321.639843 345.733357,357.532007 342.172182,393.070969 C345.538503,405.959539 344.890693,444.441163 332.947234,437.852951 C332.485426,390.108412 336.78805,342.365653 333.865102,294.637952 C334.756959,289.46136 340.330195,287.664824 344.404881,285.922911 Z" id="path2824"></path>
                <path d="M329.731001,468.52079 C340.927626,462.748455 322.907732,472.532593 336.262263,461.818586 C347.996767,449.507962 400.980416,451.850683 392.151291,463.570173 C362.097904,463.932867 344.660565,451.336213 322.997311,474.011111 L325.847565,471.625404 L329.731001,468.52079 L329.731001,468.52079 Z" id="path2826"></path>
                <path d="M405.75749,298.839362 C395.850461,338.000739 386.227865,378.964859 395.730126,419.010472 C399.334242,440.299213 380.989439,446.820162 384.908105,421.718076 C381.687948,385.993842 381.490219,348.755269 394.634471,314.817852 C392.854819,307.149865 398.450417,300.3323 405.75749,298.839362 Z" id="path2828"></path>
                <path d="M338.884899,482.87615 C367.834234,505.993417 406.942996,496.709145 440.202623,503.073024 C451.187555,501.237471 491.682016,495.515926 459.811421,506.561277 C426.211188,510.148098 391.658908,506.278396 358.278582,502.563666 C351.291353,500.685537 323.809355,493.020882 338.884899,482.87615 Z" id="path2830"></path>
                <path d="M630.717235,213.806715 C620.759326,260.964711 607.354872,315.651343 562.900355,341.663448 C530.368534,369.954524 505.235143,406.042774 483.681865,443.019458 C472.712859,453.640146 476.821542,499.962067 460.448279,489.890211 C466.027768,456.74987 483.493081,427.410324 504.139534,401.220661 C516.882397,377.687994 555.244826,342.449435 566.017472,335.807878 C601.709306,308.030587 611.586354,260.409614 621.164047,218.525569 L625.940618,216.166142 L630.717235,213.806715 L630.717235,213.806715 Z" id="path2832"></path>
                <path d="M620.6227,296.798916 C594.067057,318.800267 602.494792,355.696044 610.644392,384.18243 C614.174627,398.63403 633.534588,439.82262 615.883913,439.603854 C604.940188,411.330484 601.628444,380.117281 593.023744,350.950685 C590.898693,330.295379 598.51297,303.338529 620.6227,296.798916 Z" id="path2834"></path>
                <path d="M601.655459,436.613642 C589.823391,480.587778 651.160165,479.737585 679.808595,480.560352 C709.342584,487.622922 619.077329,487.998712 642.991992,485.090778 C616.992436,488.316502 566.394495,461.08024 601.655459,436.613642 Z" id="path2836"></path>
                <path d="M1.91544863,184.196194 C26.1227803,155.604386 74.3865711,168.020418 92.7514022,196.630776 C80.8058944,217.971964 69.866728,170.170913 48.6354613,177.718049 C41.7760141,172.800394 -0.322589466,175.958731 19.8868845,173.695764 C14.5216258,178.077703 8.66792224,182.262247 1.91544863,184.196194 Z" id="path2838"></path>
                <path d="M67.0986504,168.215751 C73.5295007,162.038312 102.095649,123.057314 113.046534,102.441809 C130.516392,76.8425206 141.853663,45.7674958 163.667037,23.9361242 C190.468278,-6.93803659 226.883888,17.3271672 259.037938,20.9465564 C305.970397,27.0038025 352.259325,12.2606285 398.584396,6.49715104 C439.726166,-1.77939621 482.445112,-3.14174098 523.17057,8.27274158 C562.138462,14.1053808 596.328368,34.686807 628.081366,56.3531641 C652.755504,82.9123114 676.787261,111.362907 691.77309,144.730256 C709.046333,172.173027 708.880273,204.22789 708.593149,235.520439 C706.762251,287.516151 713.461534,340.951295 695.400844,390.979323 C677.098343,416.700972 699.308969,449.638564 683.277818,473.522881 C674.79975,457.321701 676.168702,412.138649 688.531987,387.525386 C705.406851,329.646656 696.621853,268.70347 698.900323,209.424415 C698.799062,170.957672 677.172087,136.156727 655.941025,105.428698 C636.262773,75.2318624 609.305101,50.5435469 576.075273,36.0095603 C543.232051,15.5613057 503.01837,12.0161254 465.59667,6.31790812 C398.165072,3.92552006 333.217155,29.2924342 265.954121,28.6511134 C237.539119,28.8014157 211.751416,15.4090959 183.880349,12.3424717 C167.168665,21.402346 147.153753,54.0672522 135.403177,77.137923 C115.226919,107.750806 99.7267259,143.473356 71.4757754,167.416557 C64.3457868,169.160834 55.3541754,178.558632 67.0986504,168.215751 Z" id="path2840"></path>
                <path d="M51.0497031,352.383753 C69.162958,359.415976 59.6487315,385.899884 46.0233764,364.50404 C38.9014741,359.207113 45.319287,353.594631 51.0497031,352.383753 Z" id="path2842"></path>
                <path d="M26.6005561,212.047725 C32.2772482,178.700661 87.2770344,212.443462 64.1888175,227.7275 C53.5243041,219.342163 46.1555714,191.746533 28.0965379,204.996358 C49.1218024,191.732761 38.3182124,209.899749 26.6005561,212.047725 Z" id="path2844"></path>
                <path d="M385.100175,361.382268 C377.905908,385.489138 343.707879,419.021834 365.158391,385.960165 C369.536812,376.462284 373.712073,364.33287 385.100175,361.382268 Z" id="path2846"></path>
                <path d="M250.761391,416.162727 C254.90836,432.634284 230.909924,452.418223 239.385491,425.090055 C241.25489,420.258405 246.227771,417.783347 250.761391,416.162727 Z" id="path2848"></path>
            </g>
        </g>
    </g>
</svg>